<svg xmlns="http://www.w3.org/2000/svg" xmlns:xlink="http://www.w3.org/1999/xlink" width="95.739" height="71.041" viewBox="0 0 95.739 71.041">
  <defs>
    <clipPath id="clip-path">
      <path id="Path_135" data-name="Path 135" d="M295.98-779.174l-5.107-.005-5.044.005,5.075-8.791Z" fill="none" clip-rule="evenodd"/>
    </clipPath>
    <clipPath id="clip-path-2">
      <path id="Path_134" data-name="Path 134" d="M0,0H595V-842H0Z" fill="none"/>
    </clipPath>
    <clipPath id="clip-path-3">
      <path id="Path_138" data-name="Path 138" d="M301.355-794.087l-3.445,5.966L285.83-809l6.906.007Z" fill="none" clip-rule="evenodd"/>
    </clipPath>
    <clipPath id="clip-path-5">
      <path id="Path_141" data-name="Path 141" d="M309.81-779.174l-5.107-.005-5.044.005,5.075-8.791Z" fill="none" clip-rule="evenodd"/>
    </clipPath>
    <clipPath id="clip-path-7">
      <path id="Path_144" data-name="Path 144" d="M280.61-794.087,272-809h6.915l8.61,14.913-8.61,14.913H272Z" fill="none" clip-rule="evenodd"/>
    </clipPath>
    <clipPath id="clip-path-9">
      <path id="Path_147" data-name="Path 147" d="M316.88-779.174h6.915l-8.61-14.913L306.575-809H299.66l8.61,14.913Z" fill="none" clip-rule="evenodd"/>
    </clipPath>
    <clipPath id="clip-path-11">
      <path id="Path_150" data-name="Path 150" d="M253.158-757.44v6.606H250v-20.92h3.158v7.455l3.821-7.455h3.364l-4.3,8.556,5.034,12.364h-3.7l-3.3-8.476ZM267.211-772a4.722,4.722,0,0,1,3.5,1.466,4.867,4.867,0,0,1,1.441,3.54v11.4a4.851,4.851,0,0,1-1.447,3.546,4.736,4.736,0,0,1-3.493,1.461,4.672,4.672,0,0,1-3.476-1.466,4.886,4.886,0,0,1-1.43-3.54v-11.4a4.851,4.851,0,0,1,1.447-3.546A4.7,4.7,0,0,1,267.211-772Zm1.74,4.778a1.82,1.82,0,0,0-.5-1.3,1.61,1.61,0,0,0-1.22-.529,1.632,1.632,0,0,0-1.22.529,1.8,1.8,0,0,0-.509,1.3v11.61a1.8,1.8,0,0,0,.509,1.29,1.624,1.624,0,0,0,1.22.535,1.6,1.6,0,0,0,1.22-.535,1.826,1.826,0,0,0,.5-1.29Zm11.3-4.778a4.722,4.722,0,0,1,3.5,1.466,4.867,4.867,0,0,1,1.441,3.54v11.4a4.851,4.851,0,0,1-1.447,3.546,4.736,4.736,0,0,1-3.493,1.461,4.672,4.672,0,0,1-3.476-1.466,4.886,4.886,0,0,1-1.43-3.54v-11.4a4.851,4.851,0,0,1,1.447-3.546A4.7,4.7,0,0,1,280.255-772Zm1.247,4.778a1.82,1.82,0,0,0-.5-1.3,1.61,1.61,0,0,0-1.22-.529,1.632,1.632,0,0,0-1.22.529,1.8,1.8,0,0,0-.509,1.3v11.61a1.8,1.8,0,0,0,.509,1.29,1.624,1.624,0,0,0,1.22.535,1.6,1.6,0,0,0,1.22-.535,1.826,1.826,0,0,0,.5-1.29Zm15.013,16.388H287.9v-20.92h3.151v17.789h5.463Zm5.142,0h-3.173v-20.92h4.563l2.965,15,2.849-15h4.39v20.92h-3.185v-13.144l-2.757,13.144h-2.56l-3.092-13.109Zm17.746,0h-3.2v-20.92h3.2Zm6.317-20.92,4.253,14.05v-14.05h3.213v20.92h-3.446l-4.428-13.4v13.4h-3.2v-20.92Zm20.017,15.919a4.851,4.851,0,0,1-1.447,3.533,4.705,4.705,0,0,1-3.475,1.468h-4.922v-20.92h4.922a4.694,4.694,0,0,1,3.487,1.468,4.857,4.857,0,0,1,1.436,3.521Zm-6.645,2.047H341a1.686,1.686,0,0,0,1.273-.543,1.789,1.789,0,0,0,.516-1.274v-10.9a1.744,1.744,0,0,0-.527-1.274,1.715,1.715,0,0,0-1.261-.531h-1.9Z" fill="none" clip-rule="evenodd"/>
    </clipPath>
    <clipPath id="clip-path-13">
      <path id="Path_153" data-name="Path 153" d="M265.823-743.248h-.982v-.925h2.887v.925h-.979v5.212h-.925Zm6.862,5.212v-6.138h2.631v.925h-1.709v1.679h1.248v.929h-1.248v1.679h1.709v.925Zm8.951.077a1.415,1.415,0,0,1-1.04-.427,1.411,1.411,0,0,1-.427-1.036v-3.361a1.411,1.411,0,0,1,.431-1.038,1.416,1.416,0,0,1,1.036-.429,1.4,1.4,0,0,1,1.038.431,1.421,1.421,0,0,1,.426,1.036v.7h-.959v-.717a.516.516,0,0,0-.156-.379.516.516,0,0,0-.379-.156.506.506,0,0,0-.374.156.519.519,0,0,0-.155.379v3.368a.513.513,0,0,0,.155.377.509.509,0,0,0,.374.155.519.519,0,0,0,.379-.155.51.51,0,0,0,.156-.377v-.845h.959v.855a1.4,1.4,0,0,1-.431,1.038A1.417,1.417,0,0,1,281.636-737.959ZM289-740.634v2.6h-.929v-6.138H289v2.608h1.107v-2.608h.929v6.138h-.929v-2.6Zm8.12-3.54,1.225,4.122v-4.122h.925v6.138h-.993L297-741.966v3.93h-.922v-6.138Zm8.635-.074a1.415,1.415,0,0,1,1.041.431,1.419,1.419,0,0,1,.429,1.04v3.348a1.416,1.416,0,0,1-.431,1.042,1.42,1.42,0,0,1-1.04.429,1.4,1.4,0,0,1-1.035-.431,1.426,1.426,0,0,1-.426-1.04v-3.348a1.415,1.415,0,0,1,.431-1.041A1.408,1.408,0,0,1,305.754-744.248Zm.5,1.45a.51.51,0,0,0-.153-.375.51.51,0,0,0-.375-.153.518.518,0,0,0-.375.153.5.5,0,0,0-.156.375v3.362a.506.506,0,0,0,.156.374.515.515,0,0,0,.375.155.507.507,0,0,0,.375-.155.512.512,0,0,0,.153-.374Zm8.517,4.761h-2.52v-6.138h.922v5.219h1.6Zm6.037-1.41-.225,1.41h-.962l1.04-6.138h1.275l1.026,6.138H322l-.219-1.41Zm.485-3.321-.343,2.419h.686Zm6.522,4.731v-6.138H329.2a1.763,1.763,0,0,1,.989.289,1.348,1.348,0,0,1,.538.757,2.169,2.169,0,0,1,.087.653,1.449,1.449,0,0,1-.326.989.961.961,0,0,1-.323.239,1.079,1.079,0,0,1,.522.464,1.758,1.758,0,0,1,.212.606,2.488,2.488,0,0,1,.034.427,2.066,2.066,0,0,1-.219.989,1.332,1.332,0,0,1-.484.508,1.338,1.338,0,0,1-.7.215Zm1-.915h.387a.658.658,0,0,0,.653-.484,1.047,1.047,0,0,0,.064-.38,1.156,1.156,0,0,0-.2-.75.628.628,0,0,0-.518-.215h-.387Zm0-2.715h.387a.569.569,0,0,0,.579-.421,1.21,1.21,0,0,0,.054-.387.811.811,0,0,0-.185-.579.587.587,0,0,0-.447-.182h-.387Z" fill="none" clip-rule="evenodd"/>
    </clipPath>
  </defs>
  <g id="Group_171" data-name="Group 171" transform="translate(-39 -51)">
    <g id="Group_98" data-name="Group 98" transform="translate(-211 860)" clip-path="url(#clip-path)">
      <g id="Group_97" data-name="Group 97" clip-path="url(#clip-path-2)">
        <path id="Path_133" data-name="Path 133" d="M280.83-774.174H300.98v-18.791H280.83Z" fill="#5d5a5b"/>
      </g>
    </g>
    <g id="Group_100" data-name="Group 100" transform="translate(-211 860)" clip-path="url(#clip-path-3)">
      <g id="Group_99" data-name="Group 99" clip-path="url(#clip-path-2)">
        <path id="Path_136" data-name="Path 136" d="M280.83-783.12h25.525V-814H280.83Z" fill="#1886cd"/>
      </g>
    </g>
    <g id="Group_102" data-name="Group 102" transform="translate(-211 860)" clip-path="url(#clip-path-5)">
      <g id="Group_101" data-name="Group 101" clip-path="url(#clip-path-2)">
        <path id="Path_139" data-name="Path 139" d="M294.66-774.174H314.81v-18.791H294.66Z" fill="#5d5a5b"/>
      </g>
    </g>
    <g id="Group_104" data-name="Group 104" transform="translate(-211 860)" clip-path="url(#clip-path-7)">
      <g id="Group_103" data-name="Group 103" clip-path="url(#clip-path-2)">
        <path id="Path_142" data-name="Path 142" d="M267-774.174h25.525V-814H267Z" fill="#1886cd"/>
      </g>
    </g>
    <g id="Group_106" data-name="Group 106" transform="translate(-211 860)" clip-path="url(#clip-path-9)">
      <g id="Group_105" data-name="Group 105" clip-path="url(#clip-path-2)">
        <path id="Path_145" data-name="Path 145" d="M294.66-774.174h34.135V-814H294.66Z" fill="#1886cd"/>
      </g>
    </g>
    <g id="Group_108" data-name="Group 108" transform="translate(-211 860)" clip-path="url(#clip-path-11)">
      <g id="Group_107" data-name="Group 107" clip-path="url(#clip-path-2)">
        <path id="Path_148" data-name="Path 148" d="M245-745.588H350.739V-777H245Z" fill="#1886cd"/>
      </g>
    </g>
    <g id="Group_110" data-name="Group 110" transform="translate(-211 860)" clip-path="url(#clip-path-13)">
      <g id="Group_109" data-name="Group 109" clip-path="url(#clip-path-2)">
        <path id="Path_151" data-name="Path 151" d="M259.841-732.959h76.095v-16.292H259.841Z" fill="#5d5a5b"/>
      </g>
    </g>
  </g>
</svg>
